<?xml version="1.0" encoding="UTF-8"?>
<svg version="1.1" xmlns="http://www.w3.org/2000/svg" width="16" height="16">
<path d="M0 0 C2.76223278 2.76223278 2.57856291 5.20706617 3 9 C1.02 9 -0.96 9 -3 9 C-2.67 6.69 -2.34 4.38 -2 2 C-2.66 1.67 -3.32 1.34 -4 1 C-3.88601335 2.62580966 -3.75844341 4.25067157 -3.625 5.875 C-3.55539062 6.77992187 -3.48578125 7.68484375 -3.4140625 8.6171875 C-3.20431868 11.17941903 -3.20431868 11.17941903 -1 13 C-3.64 13 -6.28 13 -9 13 C-8.34 12.34 -7.68 11.68 -7 11 C-6.53837573 8.56747339 -6.53837573 8.56747339 -6.375 5.875 C-6.26285156 4.50988281 -6.26285156 4.50988281 -6.1484375 3.1171875 C-6.09945313 2.41851562 -6.05046875 1.71984375 -6 1 C-6.66 1.66 -7.32 2.32 -8 3 C-7.67801034 6.09926819 -7.67801034 6.09926819 -7 9 C-8.98 9 -10.96 9 -13 9 C-12.82802165 3.75466025 -12.82802165 3.75466025 -12 1 C-7.63677102 -2.44999501 -4.92272737 -2.34948352 0 0 Z M-11 5 C-11 5.66 -11 6.32 -11 7 C-10.34 7 -9.68 7 -9 7 C-9 6.34 -9 5.68 -9 5 C-9.66 5 -10.32 5 -11 5 Z M-1 5 C-1 5.66 -1 6.32 -1 7 C-0.34 7 0.32 7 1 7 C1 6.34 1 5.68 1 5 C0.34 5 -0.32 5 -1 5 Z " fill="#444444" transform="translate(13,3)"/>
</svg>
